<?xml version="1.0" encoding="UTF-8" standalone="no"?>
<!-- Created with Inkscape (http://www.inkscape.org/) -->

<svg
   xmlns:dc="http://purl.org/dc/elements/1.1/"
   xmlns:cc="http://creativecommons.org/ns#"
   xmlns:rdf="http://www.w3.org/1999/02/22-rdf-syntax-ns#"
   xmlns:svg="http://www.w3.org/2000/svg"
   xmlns="http://www.w3.org/2000/svg"
   xmlns:sodipodi="http://sodipodi.sourceforge.net/DTD/sodipodi-0.dtd"
   xmlns:inkscape="http://www.inkscape.org/namespaces/inkscape"
   width="16"
   height="16"
   id="svg2"
   version="1.1"
   inkscape:version="0.92.3 (2405546, 2018-03-11)"
   sodipodi:docname="checkbox-unchecked-focused.svg"
   inkscape:export-filename="/home/steffen/.local/share/themes/neu2/gtk-3.0/assets/dark/checkbox-unchecked.png"
   inkscape:export-xdpi="90"
   inkscape:export-ydpi="90">
  <defs
     id="defs4">
    <linearGradient
       id="linearGradient3768-6">
      <stop
         style="stop-color:#0f0f0f;stop-opacity:1;"
         offset="0"
         id="stop3770-6" />
      <stop
         id="stop3778-2"
         offset="0.078125"
         style="stop-color:#171717;stop-opacity:1;" />
      <stop
         style="stop-color:#171717;stop-opacity:1;"
         offset="0.97355771"
         id="stop3774-0" />
      <stop
         style="stop-color:#1b1b1b;stop-opacity:1;"
         offset="1"
         id="stop3776-1" />
    </linearGradient>
  </defs>
  <sodipodi:namedview
     id="base"
     pagecolor="#ffffff"
     bordercolor="#666666"
     borderopacity="1.0"
     inkscape:pageopacity="0.0"
     inkscape:pageshadow="2"
     inkscape:zoom="22.627418"
     inkscape:cx="1.7030164"
     inkscape:cy="6.3058787"
     inkscape:document-units="px"
     inkscape:current-layer="layer1"
     showgrid="true"
     inkscape:snap-bbox="true"
     showguides="true"
     inkscape:guide-bbox="true"
     inkscape:showpageshadow="false"
     showborder="true"
     inkscape:window-width="1920"
     inkscape:window-height="1013"
     inkscape:window-x="0"
     inkscape:window-y="0"
     inkscape:window-maximized="1"
     inkscape:bbox-paths="true"
     inkscape:bbox-nodes="true"
     inkscape:snap-bbox-edge-midpoints="true">
    <inkscape:grid
       type="xygrid"
       id="grid2985"
       empspacing="5"
       visible="true"
       enabled="true"
       snapvisiblegridlinesonly="true" />
  </sodipodi:namedview>
  <metadata
     id="metadata7">
    <rdf:RDF>
      <cc:Work
         rdf:about="">
        <dc:format>image/svg+xml</dc:format>
        <dc:type
           rdf:resource="http://purl.org/dc/dcmitype/StillImage" />
        <dc:title />
      </cc:Work>
    </rdf:RDF>
  </metadata>
  <g
     inkscape:label="Ebene 1"
     inkscape:groupmode="layer"
     id="layer1"
     transform="translate(0,-1036.3622)">
    <g
       transform="matrix(0.92951982,0,0,0.92914368,-173.75069,793.0382)"
       id="g15812-6-6-1-4-4"
       style="display:inline">
      <g
         style="display:inline"
         id="g5489-2-9-6-8-8-9-7"
         transform="matrix(0.5089163,0,0,0.51739823,161.7932,197.56426)">
        <g
           id="g5428-8-1-4-0-0-65-8" />
      </g>
    </g>
    <rect
       style="color:#000000;display:inline;overflow:visible;visibility:visible;fill:none;stroke:none;stroke-width:2;marker:none;enable-background:accumulate"
       id="rect13523-4-0"
       width="16"
       height="16"
       x="0"
       y="1036.3622" />
    <rect
       ry="2"
       style="color:#000000;display:inline;overflow:visible;visibility:visible;fill:#2d2d2d;fill-opacity:1;stroke:#596eb5;stroke-width:1;stroke-linecap:butt;stroke-linejoin:round;stroke-miterlimit:4;stroke-dasharray:none;stroke-dashoffset:0;stroke-opacity:1;marker:none;enable-background:accumulate"
       id="rect5147-9-1-5-7-6-3-70"
       width="13"
       height="12.999997"
       x="1.5"
       y="1037.8622"
       rx="2" />
    <path
       style="opacity:1;fill:#004279;fill-opacity:1;stroke-width:0.04419417"
       d="M 2.8894066,14.900902 C 2.0934081,14.708211 1.39877,14.051257 1.1329268,13.239713 L 1.0268456,12.915876 V 8.0103234 c 0,-4.6365067 0.00446,-4.9200962 0.08126,-5.1707182 0.2579834,-0.8418426 0.8888584,-1.4727176 1.730701,-1.730701 0.250622,-0.076803 0.5342115,-0.08126 5.1707181,-0.08126 h 4.9055533 l 0.323836,0.1060812 c 0.825991,0.2705756 1.470507,0.9590663 1.663247,1.7767281 0.100553,0.4265762 0.101346,9.7894145 8.62e-4,10.1839625 -0.225039,0.883617 -0.924916,1.583432 -1.809406,1.809243 -0.380301,0.09709 -9.802261,0.09455 -10.2042117,-0.0028 z M 13.056725,13.903058 c 0.34988,-0.130907 0.714953,-0.496525 0.846289,-0.847552 l 0.09633,-0.257466 -0.0118,-4.8687321 -0.0118,-4.8687318 -0.109431,-0.2209709 C 13.71965,2.5434659 13.429237,2.2616389 13.122636,2.1179225 L 12.870884,1.999916 H 8.0085953 3.1463073 L 2.8536817,2.1439751 C 2.5131172,2.3116344 2.2793936,2.5512199 2.1155763,2.9005927 L 1.9991174,3.1489644 v 4.861359 4.8613586 l 0.127898,0.260481 c 0.1966148,0.400431 0.5423691,0.699215 0.9548592,0.825143 0.060767,0.01855 2.2724917,0.03544 4.9149439,0.03753 l 4.8044585,0.0038 0.255448,-0.09558 z"
       id="path849"
       inkscape:connector-curvature="0"
       transform="translate(0,1036.3622)" />
  </g>
</svg>
