<?xml version="1.0" encoding="UTF-8" standalone="no"?>
<!-- Created with Inkscape (http://www.inkscape.org/) -->

<svg
   xmlns:dc="http://purl.org/dc/elements/1.1/"
   xmlns:cc="http://creativecommons.org/ns#"
   xmlns:rdf="http://www.w3.org/1999/02/22-rdf-syntax-ns#"
   xmlns:svg="http://www.w3.org/2000/svg"
   xmlns="http://www.w3.org/2000/svg"
   xmlns:sodipodi="http://sodipodi.sourceforge.net/DTD/sodipodi-0.dtd"
   xmlns:inkscape="http://www.inkscape.org/namespaces/inkscape"
   width="16"
   height="16"
   id="svg2"
   version="1.1"
   inkscape:version="0.92.3 (2405546, 2018-03-11)"
   sodipodi:docname="checkbox-checked-focused.svg"
   inkscape:export-filename="/home/steffen/.local/share/themes/neu2/gtk-3.0/assets/dark/checkbox-unchecked.png"
   inkscape:export-xdpi="90"
   inkscape:export-ydpi="90">
  <defs
     id="defs4">
    <linearGradient
       id="linearGradient3768-6">
      <stop
         style="stop-color:#0f0f0f;stop-opacity:1;"
         offset="0"
         id="stop3770-6" />
      <stop
         id="stop3778-2"
         offset="0.078125"
         style="stop-color:#171717;stop-opacity:1;" />
      <stop
         style="stop-color:#171717;stop-opacity:1;"
         offset="0.97355771"
         id="stop3774-0" />
      <stop
         style="stop-color:#1b1b1b;stop-opacity:1;"
         offset="1"
         id="stop3776-1" />
    </linearGradient>
  </defs>
  <sodipodi:namedview
     id="base"
     pagecolor="#ffffff"
     bordercolor="#666666"
     borderopacity="1.0"
     inkscape:pageopacity="0.0"
     inkscape:pageshadow="2"
     inkscape:zoom="32.000001"
     inkscape:cx="2.224145"
     inkscape:cy="9.0397493"
     inkscape:document-units="px"
     inkscape:current-layer="layer1"
     showgrid="true"
     inkscape:snap-bbox="true"
     showguides="true"
     inkscape:guide-bbox="true"
     inkscape:showpageshadow="false"
     showborder="true"
     inkscape:window-width="1920"
     inkscape:window-height="1013"
     inkscape:window-x="0"
     inkscape:window-y="0"
     inkscape:window-maximized="1"
     inkscape:bbox-paths="true"
     inkscape:bbox-nodes="true"
     inkscape:snap-bbox-edge-midpoints="true">
    <inkscape:grid
       type="xygrid"
       id="grid2985"
       empspacing="5"
       visible="true"
       enabled="true"
       snapvisiblegridlinesonly="true" />
  </sodipodi:namedview>
  <metadata
     id="metadata7">
    <rdf:RDF>
      <cc:Work
         rdf:about="">
        <dc:format>image/svg+xml</dc:format>
        <dc:type
           rdf:resource="http://purl.org/dc/dcmitype/StillImage" />
        <dc:title />
      </cc:Work>
    </rdf:RDF>
  </metadata>
  <g
     inkscape:label="Ebene 1"
     inkscape:groupmode="layer"
     id="layer1"
     transform="translate(0,-1036.3622)">
    <g
       transform="translate(-17,1036)"
       style="display:inline"
       id="checkbox-unchecked-5-59"
       inkscape:label="#g22047">
      <g
         inkscape:label="#g21853"
         id="sdsd-7-54">
        <g
           id="scdsdcd-5-8"
           inkscape:label="#g14325"
           transform="translate(0,-30)">
          <g
             style="display:inline"
             id="g15812-6-6-1-5-4"
             transform="matrix(0.92951982,0,0,0.92914368,-156.75069,-212.9618)">
            <g
               transform="matrix(0.5089163,0,0,0.51739823,161.7932,197.56426)"
               id="g5489-2-9-6-8-8-53-5"
               style="display:inline">
              <g
                 id="g5428-8-1-4-0-0-4-2" />
            </g>
          </g>
          <rect
             y="30.362183"
             x="17"
             height="16"
             width="16"
             id="rect13523-7-11"
             style="color:#000000;display:inline;overflow:visible;visibility:visible;fill:none;stroke:none;stroke-width:2;marker:none;enable-background:accumulate" />
          <g
             id="g5400-6-68">
            <rect
               ry="1.9999917"
               style="color:#000000;display:inline;overflow:visible;visibility:visible;fill:#596eb5;fill-opacity:1;stroke:#000000;stroke-width:0;stroke-linecap:butt;stroke-linejoin:round;stroke-miterlimit:4;stroke-dasharray:none;stroke-dashoffset:0;stroke-opacity:1;marker:none;enable-background:accumulate"
               id="rect5147-9-1-5-7-6-7-4"
               width="13.999989"
               height="13.99999"
               x="18.000006"
               y="31.362196"
               rx="1.9999943" />
          </g>
        </g>
      </g>
    </g>
    <g
       style="display:inline"
       id="checkbox-checked-dark-7-37"
       inkscape:label="Ebene 1">
      <g
         style="opacity:0.85;fill:#1a1a1a;fill-opacity:1"
         transform="rotate(45,-3.2604448,1033.6624)"
         id="g3981-6-4-97" />
      <g
         transform="rotate(45,7.4999938,1026.3622)"
         id="g4049-2-5">
        <g
           transform="translate(12.374375,11.531233)"
           id="g4056-7-6">
          <g
             style="fill:#3b3c3e;fill-opacity:1"
             transform="translate(-3,-4.9999826)"
             id="g3981-0-8">
            <rect
               style="fill:#2f2f2f;fill-opacity:1;stroke:none"
               id="rect3977-39-90"
               width="5"
               height="1.9999826"
               x="8"
               y="1033.3622"
               rx="0.66666085"
               ry="0.66666085" />
            <rect
               style="fill:#2f2f2f;fill-opacity:1;stroke:none"
               id="rect3979-7-60"
               width="2"
               height="7.9999828"
               x="11"
               y="1027.3622"
               ry="0" />
          </g>
          <rect
             transform="translate(0,1036.3622)"
             y="-8"
             x="5"
             height="1"
             width="3"
             id="rect4047-81-5"
             style="fill:#eeeeee;fill-opacity:0;stroke:none" />
        </g>
      </g>
    </g>
    <path
       style="fill:#000000;fill-opacity:0;stroke-width:0.03125"
       d="M 2.4683506,14.912138 C 1.849886,14.735307 1.3462596,14.265689 1.1250476,13.659545 L 1.03977,13.425875 1.0315187,8.0690035 C 1.0232985,2.7323518 1.023512,2.7112375 1.088088,2.4752537 1.2862002,1.7512815 1.9173704,1.1754917 2.6517918,1.0487533 c 0.2301678,-0.03972 0.9967178,-0.044983 5.484023,-0.037651 l 5.2164552,0.00852 0.256703,0.086947 c 0.288951,0.097869 0.660836,0.3314991 0.835618,0.5249618 0.190695,0.2110762 0.356216,0.4926894 0.447075,0.7606411 l 0.0856,0.2524503 v 5.3437499 c 0,5.1056776 -0.0026,5.3521036 -0.05766,5.5312496 -0.127181,0.413565 -0.348865,0.752995 -0.663398,1.015756 -0.187503,0.15664 -0.594794,0.357072 -0.819542,0.403304 -0.115968,0.02386 -1.75503,0.0334 -5.4687498,0.03184 -5.0060346,-0.0021 -5.3141538,-0.0054 -5.4995686,-0.05839 z M 9.8600179,8.6837528 C 11.411225,7.1326166 12.680395,5.8492964 12.680395,5.8319301 c 0,-0.017367 -0.312968,-0.3443106 -0.695483,-0.7265431 L 11.289429,4.4104195 9.1652326,6.5347879 7.0410364,8.6591563 6.1497783,7.7722232 C 5.2160818,6.8430579 5.1822021,6.8168491 4.9147699,6.8168491 c -0.2275469,0 -0.3313109,0.060972 -0.6762991,0.3973966 -0.19032,0.1855956 -0.3654559,0.3864997 -0.4010832,0.4600959 -0.079476,0.1641756 -0.082122,0.4299659 -0.00571,0.5732691 0.047457,0.088997 3.1503688,3.2532913 3.1924,3.2555523 0.00856,4.6e-4 1.2847303,-1.268274 2.8359375,-2.8194102 z"
       id="path857"
       inkscape:connector-curvature="0"
       transform="translate(0,1036.3622)" />
    <path
       style="fill:#000000;fill-opacity:0;stroke-width:0.03125"
       d="M 2.4683506,14.912138 C 1.849886,14.735307 1.3462596,14.265689 1.1250476,13.659545 L 1.03977,13.425875 1.0315187,8.0690035 C 1.0232985,2.7323518 1.023512,2.7112375 1.088088,2.4752537 1.2862002,1.7512815 1.9173704,1.1754917 2.6517918,1.0487533 c 0.2301678,-0.03972 0.9967178,-0.044983 5.484023,-0.037651 l 5.2164552,0.00852 0.256703,0.086947 c 0.288951,0.097869 0.660836,0.3314991 0.835618,0.5249618 0.190695,0.2110762 0.356216,0.4926894 0.447075,0.7606411 l 0.0856,0.2524503 v 5.3437499 c 0,5.1056776 -0.0026,5.3521036 -0.05766,5.5312496 -0.127181,0.413565 -0.348865,0.752995 -0.663398,1.015756 -0.187503,0.15664 -0.594794,0.357072 -0.819542,0.403304 -0.115968,0.02386 -1.75503,0.0334 -5.4687498,0.03184 -5.0060346,-0.0021 -5.3141538,-0.0054 -5.4995686,-0.05839 z M 9.8600179,8.6837528 C 11.411225,7.1326166 12.680395,5.8492964 12.680395,5.8319301 c 0,-0.017367 -0.312968,-0.3443106 -0.695483,-0.7265431 L 11.289429,4.4104195 9.1652326,6.5347879 7.0410364,8.6591563 6.1497783,7.7722232 C 5.2160818,6.8430579 5.1822021,6.8168491 4.9147699,6.8168491 c -0.2275469,0 -0.3313109,0.060972 -0.6762991,0.3973966 -0.19032,0.1855956 -0.3654559,0.3864997 -0.4010832,0.4600959 -0.079476,0.1641756 -0.082122,0.4299659 -0.00571,0.5732691 0.047457,0.088997 3.1503688,3.2532913 3.1924,3.2555523 0.00856,4.6e-4 1.2847303,-1.268274 2.8359375,-2.8194102 z"
       id="path859"
       inkscape:connector-curvature="0"
       transform="translate(0,1036.3622)" />
    <path
       style="fill:#000000;fill-opacity:0;stroke-width:0.03125"
       d="M 2.4683506,14.912138 C 1.849886,14.735307 1.3462596,14.265689 1.1250476,13.659545 L 1.03977,13.425875 1.0315187,8.0690035 C 1.0232985,2.7323518 1.023512,2.7112375 1.088088,2.4752537 1.2862002,1.7512815 1.9173704,1.1754917 2.6517918,1.0487533 c 0.2301678,-0.03972 0.9967178,-0.044983 5.484023,-0.037651 l 5.2164552,0.00852 0.256703,0.086947 c 0.288951,0.097869 0.660836,0.3314991 0.835618,0.5249618 0.190695,0.2110762 0.356216,0.4926894 0.447075,0.7606411 l 0.0856,0.2524503 v 5.3437499 c 0,5.1056776 -0.0026,5.3521036 -0.05766,5.5312496 -0.127181,0.413565 -0.348865,0.752995 -0.663398,1.015756 -0.187503,0.15664 -0.594794,0.357072 -0.819542,0.403304 -0.115968,0.02386 -1.75503,0.0334 -5.4687498,0.03184 -5.0060346,-0.0021 -5.3141538,-0.0054 -5.4995686,-0.05839 z M 9.8600179,8.6837528 C 11.411225,7.1326166 12.680395,5.8492964 12.680395,5.8319301 c 0,-0.017367 -0.312968,-0.3443106 -0.695483,-0.7265431 L 11.289429,4.4104195 9.1652326,6.5347879 7.0410364,8.6591563 6.1497783,7.7722232 C 5.2160818,6.8430579 5.1822021,6.8168491 4.9147699,6.8168491 c -0.2275469,0 -0.3313109,0.060972 -0.6762991,0.3973966 -0.19032,0.1855956 -0.3654559,0.3864997 -0.4010832,0.4600959 -0.079476,0.1641756 -0.082122,0.4299659 -0.00571,0.5732691 0.047457,0.088997 3.1503688,3.2532913 3.1924,3.2555523 0.00856,4.6e-4 1.2847303,-1.268274 2.8359375,-2.8194102 z"
       id="path861"
       inkscape:connector-curvature="0"
       transform="translate(0,1036.3622)" />
    <path
       style="fill:#000000;fill-opacity:0;stroke-width:0.03125"
       d="M 2.4683506,14.912138 C 1.849886,14.735307 1.3462596,14.265689 1.1250476,13.659545 L 1.03977,13.425875 1.0315187,8.0690035 C 1.0232985,2.7323518 1.023512,2.7112375 1.088088,2.4752537 1.2862002,1.7512815 1.9173704,1.1754917 2.6517918,1.0487533 c 0.2301678,-0.03972 0.9967178,-0.044983 5.484023,-0.037651 l 5.2164552,0.00852 0.256703,0.086947 c 0.288951,0.097869 0.660836,0.3314991 0.835618,0.5249618 0.190695,0.2110762 0.356216,0.4926894 0.447075,0.7606411 l 0.0856,0.2524503 v 5.3437499 c 0,5.1056776 -0.0026,5.3521036 -0.05766,5.5312496 -0.127181,0.413565 -0.348865,0.752995 -0.663398,1.015756 -0.187503,0.15664 -0.594794,0.357072 -0.819542,0.403304 -0.115968,0.02386 -1.75503,0.0334 -5.4687498,0.03184 -5.0060346,-0.0021 -5.3141538,-0.0054 -5.4995686,-0.05839 z M 9.8600179,8.6837528 C 11.411225,7.1326166 12.680395,5.8492964 12.680395,5.8319301 c 0,-0.017367 -0.312968,-0.3443106 -0.695483,-0.7265431 L 11.289429,4.4104195 9.1652326,6.5347879 7.0410364,8.6591563 6.1497783,7.7722232 C 5.2160818,6.8430579 5.1822021,6.8168491 4.9147699,6.8168491 c -0.2275469,0 -0.3313109,0.060972 -0.6762991,0.3973966 -0.19032,0.1855956 -0.3654559,0.3864997 -0.4010832,0.4600959 -0.079476,0.1641756 -0.082122,0.4299659 -0.00571,0.5732691 0.047457,0.088997 3.1503688,3.2532913 3.1924,3.2555523 0.00856,4.6e-4 1.2847303,-1.268274 2.8359375,-2.8194102 z"
       id="path863"
       inkscape:connector-curvature="0"
       transform="translate(0,1036.3622)" />
    <path
       style="fill:#000000;fill-opacity:0;stroke-width:0.03125"
       d="M 2.4683506,14.912138 C 1.849886,14.735307 1.3462596,14.265689 1.1250476,13.659545 L 1.03977,13.425875 1.0315187,8.0690035 C 1.0232985,2.7323518 1.023512,2.7112375 1.088088,2.4752537 1.2862002,1.7512815 1.9173704,1.1754917 2.6517918,1.0487533 c 0.2301678,-0.03972 0.9967178,-0.044983 5.484023,-0.037651 l 5.2164552,0.00852 0.256703,0.086947 c 0.288951,0.097869 0.660836,0.3314991 0.835618,0.5249618 0.190695,0.2110762 0.356216,0.4926894 0.447075,0.7606411 l 0.0856,0.2524503 v 5.3437499 c 0,5.1056776 -0.0026,5.3521036 -0.05766,5.5312496 -0.127181,0.413565 -0.348865,0.752995 -0.663398,1.015756 -0.187503,0.15664 -0.594794,0.357072 -0.819542,0.403304 -0.115968,0.02386 -1.75503,0.0334 -5.4687498,0.03184 -5.0060346,-0.0021 -5.3141538,-0.0054 -5.4995686,-0.05839 z M 9.8600179,8.6837528 C 11.411225,7.1326166 12.680395,5.8492964 12.680395,5.8319301 c 0,-0.017367 -0.312968,-0.3443106 -0.695483,-0.7265431 L 11.289429,4.4104195 9.1652326,6.5347879 7.0410364,8.6591563 6.1497783,7.7722232 C 5.2160818,6.8430579 5.1822021,6.8168491 4.9147699,6.8168491 c -0.2275469,0 -0.3313109,0.060972 -0.6762991,0.3973966 -0.19032,0.1855956 -0.3654559,0.3864997 -0.4010832,0.4600959 -0.079476,0.1641756 -0.082122,0.4299659 -0.00571,0.5732691 0.047457,0.088997 3.1503688,3.2532913 3.1924,3.2555523 0.00856,4.6e-4 1.2847303,-1.268274 2.8359375,-2.8194102 z"
       id="path865"
       inkscape:connector-curvature="0"
       transform="translate(0,1036.3622)" />
    <path
       style="fill:#000000;fill-opacity:0;stroke-width:0.03125"
       d="M 2.4683506,14.912138 C 1.849886,14.735307 1.3462596,14.265689 1.1250476,13.659545 L 1.03977,13.425875 1.0315187,8.0690035 C 1.0232985,2.7323518 1.023512,2.7112375 1.088088,2.4752537 1.2862002,1.7512815 1.9173704,1.1754917 2.6517918,1.0487533 c 0.2301678,-0.03972 0.9967178,-0.044983 5.484023,-0.037651 l 5.2164552,0.00852 0.256703,0.086947 c 0.288951,0.097869 0.660836,0.3314991 0.835618,0.5249618 0.190695,0.2110762 0.356216,0.4926894 0.447075,0.7606411 l 0.0856,0.2524503 v 5.3437499 c 0,5.1056776 -0.0026,5.3521036 -0.05766,5.5312496 -0.127181,0.413565 -0.348865,0.752995 -0.663398,1.015756 -0.187503,0.15664 -0.594794,0.357072 -0.819542,0.403304 -0.115968,0.02386 -1.75503,0.0334 -5.4687498,0.03184 -5.0060346,-0.0021 -5.3141538,-0.0054 -5.4995686,-0.05839 z M 9.8600179,8.6837528 C 11.411225,7.1326166 12.680395,5.8492964 12.680395,5.8319301 c 0,-0.017367 -0.312968,-0.3443106 -0.695483,-0.7265431 L 11.289429,4.4104195 9.1652326,6.5347879 7.0410364,8.6591563 6.1497783,7.7722232 C 5.2160818,6.8430579 5.1822021,6.8168491 4.9147699,6.8168491 c -0.2275469,0 -0.3313109,0.060972 -0.6762991,0.3973966 -0.19032,0.1855956 -0.3654559,0.3864997 -0.4010832,0.4600959 -0.079476,0.1641756 -0.082122,0.4299659 -0.00571,0.5732691 0.047457,0.088997 3.1503688,3.2532913 3.1924,3.2555523 0.00856,4.6e-4 1.2847303,-1.268274 2.8359375,-2.8194102 z"
       id="path867"
       inkscape:connector-curvature="0"
       transform="translate(0,1036.3622)" />
    <path
       style="fill:#000000;fill-opacity:0;stroke-width:0.03125"
       d="M 2.4683506,14.912138 C 1.849886,14.735307 1.3462596,14.265689 1.1250476,13.659545 L 1.03977,13.425875 1.0315187,8.0690035 C 1.0232985,2.7323518 1.023512,2.7112375 1.088088,2.4752537 1.2862002,1.7512815 1.9173704,1.1754917 2.6517918,1.0487533 c 0.2301678,-0.03972 0.9967178,-0.044983 5.484023,-0.037651 l 5.2164552,0.00852 0.256703,0.086947 c 0.288951,0.097869 0.660836,0.3314991 0.835618,0.5249618 0.190695,0.2110762 0.356216,0.4926894 0.447075,0.7606411 l 0.0856,0.2524503 v 5.3437499 c 0,5.1056776 -0.0026,5.3521036 -0.05766,5.5312496 -0.127181,0.413565 -0.348865,0.752995 -0.663398,1.015756 -0.187503,0.15664 -0.594794,0.357072 -0.819542,0.403304 -0.115968,0.02386 -1.75503,0.0334 -5.4687498,0.03184 -5.0060346,-0.0021 -5.3141538,-0.0054 -5.4995686,-0.05839 z M 9.8600179,8.6837528 C 11.411225,7.1326166 12.680395,5.8492964 12.680395,5.8319301 c 0,-0.017367 -0.312968,-0.3443106 -0.695483,-0.7265431 L 11.289429,4.4104195 9.1652326,6.5347879 7.0410364,8.6591563 6.1497783,7.7722232 C 5.2160818,6.8430579 5.1822021,6.8168491 4.9147699,6.8168491 c -0.2275469,0 -0.3313109,0.060972 -0.6762991,0.3973966 -0.19032,0.1855956 -0.3654559,0.3864997 -0.4010832,0.4600959 -0.079476,0.1641756 -0.082122,0.4299659 -0.00571,0.5732691 0.047457,0.088997 3.1503688,3.2532913 3.1924,3.2555523 0.00856,4.6e-4 1.2847303,-1.268274 2.8359375,-2.8194102 z"
       id="path869"
       inkscape:connector-curvature="0"
       transform="translate(0,1036.3622)" />
    <path
       style="fill:#004279;fill-opacity:1;stroke-width:0.03125"
       d="M 2.4683506,14.912138 C 1.849886,14.735307 1.3462596,14.265689 1.1250476,13.659545 L 1.03977,13.425875 1.0315187,8.0690035 C 1.0232985,2.7323518 1.023512,2.7112375 1.088088,2.4752537 1.2862002,1.7512815 1.9173704,1.1754917 2.6517918,1.0487533 c 0.2301678,-0.03972 0.9967178,-0.044983 5.484023,-0.037651 l 5.2164552,0.00852 0.256703,0.086947 c 0.288951,0.097869 0.660836,0.3314991 0.835618,0.5249618 0.190695,0.2110762 0.356216,0.4926894 0.447075,0.7606411 l 0.0856,0.2524503 v 5.3437499 c 0,5.1056776 -0.0026,5.3521036 -0.05766,5.5312496 -0.127181,0.413565 -0.348865,0.752995 -0.663398,1.015756 -0.187503,0.15664 -0.594794,0.357072 -0.819542,0.403304 -0.115968,0.02386 -1.75503,0.0334 -5.4687498,0.03184 -5.0060346,-0.0021 -5.3141538,-0.0054 -5.4995686,-0.05839 z M 9.8600179,8.6837528 C 11.411225,7.1326166 12.680395,5.8492964 12.680395,5.8319301 c 0,-0.017367 -0.312968,-0.3443106 -0.695483,-0.7265431 L 11.289429,4.4104195 9.1652326,6.5347879 7.0410364,8.6591563 6.1497783,7.7722232 C 5.2160818,6.8430579 5.1822021,6.8168491 4.9147699,6.8168491 c -0.2275469,0 -0.3313109,0.060972 -0.6762991,0.3973966 -0.19032,0.1855956 -0.3654559,0.3864997 -0.4010832,0.4600959 -0.079476,0.1641756 -0.082122,0.4299659 -0.00571,0.5732691 0.047457,0.088997 3.1503688,3.2532913 3.1924,3.2555523 0.00856,4.6e-4 1.2847303,-1.268274 2.8359375,-2.8194102 z"
       id="path871"
       inkscape:connector-curvature="0"
       transform="translate(0,1036.3622)" />
  </g>
</svg>
